<?xml version="1.0" encoding="utf-8"?>
<!-- Generator: Adobe Illustrator 26.5.0, SVG Export Plug-In . SVG Version: 6.00 Build 0)  -->
<svg version="1.1" id="图层_1" xmlns="http://www.w3.org/2000/svg" xmlns:xlink="http://www.w3.org/1999/xlink" x="0px" y="0px"
	 viewBox="0 0 3300 2200" style="enable-background:new 0 0 3300 2200;" xml:space="preserve">
<style type="text/css">
	.st0{fill:#FFFFFF;}
	.st1{fill:none;stroke:#000000;stroke-width:0.5;}
	.st2{font-family:'Arial-BoldMT';}
	.st3{font-size:13px;}
	.st4{font-family:'ArialMT';}
	.st5{fill:none;stroke:#00AEEF;stroke-width:0.5;}
	.st6{fill:#27AAE1;}
	.st7{fill:none;stroke:#27AAE1;stroke-width:0.5;}
</style>
<g id="Notes">
	<rect id="artboard" class="st0" width="3300" height="2200"/>
	<line class="st1" x1="263" y1="292" x2="3036" y2="292"/>
	<text transform="matrix(1 0 0 1 263 322)" class="st2 st3">Weight/Scale Variations</text>
	<text transform="matrix(1 0 0 1 534.0633 322)" class="st4 st3">Ultralight</text>
	<text transform="matrix(1 0 0 1 843.7775 322)" class="st4 st3">Thin</text>
	<text transform="matrix(1 0 0 1 1139.035 322)" class="st4 st3">Light</text>
	<text transform="matrix(1 0 0 1 1427.0773 322)" class="st4 st3">Regular</text>
	<text transform="matrix(1 0 0 1 1723.4419 322)" class="st4 st3">Medium</text>
	<text transform="matrix(1 0 0 1 2016.1719 322)" class="st4 st3">Semibold</text>
	<text transform="matrix(1 0 0 1 2326.9705 322)" class="st4 st3">Bold</text>
	<text transform="matrix(1 0 0 1 2618.2659 322)" class="st4 st3">Heavy</text>
	<text transform="matrix(1 0 0 1 2917.5054 322)" class="st4 st3">Black</text>
	<line class="st1" x1="263" y1="1903" x2="3036" y2="1903"/>
	<g transform="matrix(0.2 0 0 0.2 263 1933)">
		<path d="M46.2,4.2c21.8,0,39.5-17.6,39.5-39.4S68-74.7,46.2-74.7C24.5-74.7,6.8-57,6.8-35.3S24.5,4.2,46.2,4.2z M46.2-3.3
			c-17.7,0-31.9-14.3-31.9-32s14.3-32,31.9-32s32,14.3,32,32S63.9-3.3,46.2-3.3z M28.3-35.3c0,2.1,1.5,3.6,3.8,3.6h10.5V-21
			c0,2.2,1.5,3.7,3.6,3.7c2.2,0,3.7-1.5,3.7-3.7v-10.6h10.6c2.2,0,3.7-1.5,3.7-3.6c0-2.2-1.5-3.7-3.7-3.7H49.9v-10.5
			c0-2.2-1.5-3.8-3.7-3.8c-2.1,0-3.6,1.5-3.6,3.8V-39H32C29.8-39,28.3-37.5,28.3-35.3z"/>
	</g>
	<g transform="matrix(0.2 0 0 0.2 281.506 1933)">
		<path d="M58.5,14.6c27.5,0,49.8-22.3,49.8-49.8S86-85.1,58.5-85.1S8.7-62.7,8.7-35.3S31.1,14.6,58.5,14.6z M58.5,6.3
			C35.6,6.3,17-12.3,17-35.3s18.6-41.5,41.5-41.5S100-58.2,100-35.3S81.5,6.3,58.5,6.3z M35.9-35.3c0,2.4,1.7,4,4.2,4h14.4v14.4
			c0,2.4,1.7,4.2,4.1,4.2c2.4,0,4.2-1.7,4.2-4.2v-14.4H77c2.4,0,4.2-1.6,4.2-4s-1.7-4.2-4.2-4.2H62.6v-14.4c0-2.5-1.7-4.2-4.2-4.2
			c-2.4,0-4.1,1.7-4.1,4.2v14.4H40C37.5-39.4,35.9-37.7,35.9-35.3z"/>
	</g>
	<g transform="matrix(0.2 0 0 0.2 304.924 1933)">
		<path d="M74.9,28.3c35.1,0,63.6-28.5,63.6-63.6S110-98.9,74.9-98.9S11.3-70.4,11.3-35.3S39.7,28.3,74.9,28.3z M74.9,19.2
			c-30.1,0-54.5-24.4-54.5-54.5s24.4-54.5,54.5-54.5s54.5,24.4,54.5,54.5S105,19.2,74.9,19.2z M46-35.3c0,2.6,1.9,4.4,4.6,4.4h19.7
			v19.8c0,2.7,1.9,4.6,4.4,4.6c2.7,0,4.5-1.9,4.5-4.6v-19.8H99c2.7,0,4.6-1.8,4.6-4.4c0-2.7-1.9-4.6-4.6-4.6H79.3v-19.7
			c0-2.7-1.9-4.6-4.5-4.6s-4.4,1.9-4.4,4.6v19.7H50.6C47.9-39.8,46-38,46-35.3z"/>
	</g>
	<text transform="matrix(1 0 0 1 263 1953)" class="st2 st3">Design Variations</text>
	<text transform="matrix(1 0 0 1 263 1971)" class="st4 st3">Symbols are supported in up to nine weights and three scales.</text>
	<text transform="matrix(1 0 0 1 263 1989)" class="st4 st3">For optimal layout with text and other symbols, vertically align</text>
	<text transform="matrix(1 0 0 1 263 2007)" class="st4 st3">symbols with the adjacent text.</text>
	<line class="st5" x1="776" y1="1919" x2="776" y2="1933"/>
	<g transform="matrix(0.2 0 0 0.2 776 1933)">
		<path d="M16.6,0.8c2.6,0,3.9-1,4.8-3.7l6.3-17.2h28.8l6.3,17.2c0.9,2.7,2.2,3.7,4.7,3.7c2.6,0,4.2-1.6,4.2-4
			c0-0.8-0.1-1.6-0.5-2.6l-22.9-61c-1.1-3-3.1-4.5-6.2-4.5c-3,0-5.1,1.5-6.2,4.4L13-5.8c-0.4,1-0.5,1.8-0.5,2.6
			C12.5-0.7,14,0.8,16.6,0.8z M30-27.6l11.9-32.9h0.2L54-27.6H30z"/>
	</g>
	<line class="st5" x1="792.8" y1="1919" x2="792.8" y2="1933"/>
	<text transform="matrix(1 0 0 1 776 1953)" class="st2 st3">Margins</text>
	<text transform="matrix(1 0 0 1 776 1971)" class="st4 st3">Leading and trailing margins on the left and right side of each symbol</text>
	<text transform="matrix(1 0 0 1 776 1989)" class="st4 st3">can be adjusted by modifying the x-location of the margin guidelines.</text>
	<text transform="matrix(1 0 0 1 776 2007)" class="st4 st3">Modifications are automatically applied proportionally to all</text>
	<text transform="matrix(1 0 0 1 776 2025)" class="st4 st3">scales and weights.</text>
	<g transform="matrix(0.2 0 0 0.2 1289 1933)">
		<path d="M14.2,9.3l8.5,8.5c4.3,4.3,9.2,4.1,13.9-1.1L90-42.1L85.2-47L32.1,11.4c-1.8,2-3.4,2.5-5.8,0.1l-5.9-5.8
			c-2.3-2.3-1.8-4,0.2-5.8l57.4-54l-4.9-4.8l-58,54.4C10.3,0.1,9.9,5,14.2,9.3L14.2,9.3z M46.3-81.6c-2.1,2.1-2.2,4.9-1.1,6.9
			c1.2,1.8,3.5,3,6.7,2.1c7.3-1.7,14.9-2,22.1,2.7l-3,7.3c-1.7,4.2-0.8,7.1,1.9,9.8l11.5,11.6c2.4,2.4,4.5,2.5,7.3,2.1l5.3-1
			l3.3,3.4l-0.2,2.8c-0.2,2.5,0.4,4.4,2.9,6.8l3.8,3.7c2.4,2.4,5.5,2.5,7.8,0.2l14.6-14.6c2.3-2.3,2.2-5.3-0.1-7.7l-3.9-3.8
			c-2.4-2.4-4.2-3.2-6.6-3l-2.9,0.2l-3.2-3.2l1.2-5.6c0.6-2.8-0.1-5-3.1-8l-11-10.9C82.9-96.5,60.7-96.1,46.3-81.6L46.3-81.6z
			 M53.8-79.8C66-88.7,82.4-87.2,93.5-76l12.2,12c1.2,1.2,1.4,2.1,1,3.8l-1.6,7.4l7.5,7.4l4.9-0.3c1.3,0,1.7,0,2.6,1l2.9,2.9
			l-12.2,12.2l-2.9-2.9c-1-1-1.1-1.4-1.1-2.7l0.3-4.9l-7.5-7.4L92-46.2c-1.6,0.3-2.3,0.2-3.6-1l-10-10c-1.3-1.2-1.4-2-0.6-3.9
			l4.4-10.4c-7.8-7.3-18-10.4-28.1-7.4C53.4-78.6,53.1-79.2,53.8-79.8L53.8-79.8z"/>
	</g>
	<text transform="matrix(1 0 0 1 1289 1953)" class="st2 st3">Exporting</text>
	<text transform="matrix(1 0 0 1 1289 1971)" class="st4 st3">Symbols should be outlined when exporting to ensure the</text>
	<text transform="matrix(1 0 0 1 1289 1989)" class="st4 st3">design is preserved when submitting to Xcode.</text>
	<text id="template-version" transform="matrix(1 0 0 1 2952.4204 1933)" class="st4 st3">Template v.6.0</text>
	<text transform="matrix(1 0 0 1 2865.4575 1951)" class="st4 st3">Requires Xcode 16 or greater</text>
	<text id="descriptive-name" transform="matrix(1 0 0 1 2788.873 1969)" class="st4 st3">Generated from square.and.arrow.up.circle</text>
	<text transform="matrix(1 0 0 1 2901.5757 1987)" class="st4 st3">Typeset at 100.0 points</text>
	<text transform="matrix(1 0 0 1 263 726)" class="st4 st3">Small</text>
	<text transform="matrix(1 0 0 1 263 1156)" class="st4 st3">Medium</text>
	<text transform="matrix(1 0 0 1 263 1586)" class="st4 st3">Large</text>
</g>
<g id="Guides">
	<g id="H-reference" transform="matrix(1 0 0 1 339 696)">
		<path class="st6" d="M1,0h2.6l25.7-67.1H30v-3.3h-1.9L1,0z M11.7-24.5H47l-0.8-2.2H12.4L11.7-24.5z M55.1,0h2.6L30.6-70.5h-1.2
			v3.3L55.1,0z"/>
	</g>
	<line id="Baseline-S" class="st7" x1="263" y1="696" x2="3036" y2="696"/>
	<line id="Capline-S" class="st7" x1="263" y1="625.5" x2="3036" y2="625.5"/>
	<g id="H-reference_00000010310250636977471050000009744037042810306743_" transform="matrix(1 0 0 1 339 1126)">
		<path class="st6" d="M1,0h2.6l25.7-67.1H30v-3.3h-1.9L1,0z M11.7-24.5H47l-0.8-2.2H12.4L11.7-24.5z M55.1,0h2.6L30.6-70.5h-1.2
			v3.3L55.1,0z"/>
	</g>
	<line id="Baseline-M" class="st7" x1="263" y1="1126" x2="3036" y2="1126"/>
	<line id="Capline-M" class="st7" x1="263" y1="1055.5" x2="3036" y2="1055.5"/>
	<g id="H-reference_00000064318266816642881360000007506277579842709157_" transform="matrix(1 0 0 1 339 1556)">
		<path class="st6" d="M1,0h2.6l25.7-67.1H30v-3.3h-1.9L1,0z M11.7-24.5H47l-0.8-2.2H12.4L11.7-24.5z M55.1,0h2.6L30.6-70.5h-1.2
			v3.3L55.1,0z"/>
	</g>
	<line id="Baseline-L" class="st7" x1="263" y1="1556" x2="3036" y2="1556"/>
	<line id="Capline-L" class="st7" x1="263" y1="1485.5" x2="3036" y2="1485.5"/>
	<line id="right-margin-Regular-M" class="st5" x1="1508.4" y1="1030.8" x2="1508.4" y2="1150.1"/>
	<line id="left-margin-Regular-M" class="st5" x1="1391.3" y1="1030.8" x2="1391.3" y2="1150.1"/>
</g>
<g id="Symbols">
	<g id="Regular-M" transform="matrix(1 0 0 1 1391.32 1126)">
		<path class="st1" d="M92.1-24c-0.1-1.8-0.6-3.5-1.3-5.1c-2.1-4.9-5.2-9.1-8.9-13c-0.4-0.4-0.6-0.8-0.4-1.4
			c1.2-4.4,0.7-8.6-1.4-12.6c-2.7-5.3-7-8.8-12.4-11c-3.6-1.5-7.4-2.1-11.3-1.6c-4.2,0.6-8,2.1-11.4,4.5c-6.3,4.4-10.8,12.3-8.4,21
			c0.1,0.5,0,0.7-0.3,1c-2.6,2.7-5,5.7-6.9,8.9c-1.6,2.8-3,5.7-3.4,9c-0.2,1.8,0.6,3.9,3.2,3.9c1.5,0,3-0.2,4.4-0.9
			c-0.4,7.6,4.5,11.1,10.5,13.9c-0.2,0.2-0.4,0.4-0.5,0.6c-1.4,1.6-0.9,3.4,1.1,3.9c0.3,0.1,0.4,0.3,0.5,0.5c0.4,0.6,1,0.9,1.6,1
			c1.3,0.2,2.5-0.7,3.8,0c2.3-0.6,4.5-1.3,5.8-3.4c0.2-0.3,0.3-0.4,0.7-0.3c1.3,0.2,2.5,0.2,3.8,0c0.2,0,0.4,0,0.5,0.2
			c0.8,1.8,2.6,2.4,4.2,3.1c1,0.3,1.9,0.6,2.9,0.1c0.3-0.1,0.5,0,0.8,0.1c0.9,0.3,1.8,0.4,2.6-0.1c0.8-0.6,1.6-1.2,2.4-1.7
			c1.1-0.7,1-2.2,0-3.5c-0.5-0.6-0.4-0.7,0.2-0.9C75.3-8.1,76.2-8.5,77-9c4.4-2.7,7.7-6.1,7.4-11.7c0-0.5,0.1-0.6,0.5-0.4
			c1.2,0.6,2.5,0.7,3.8,0.7C91-20.5,92.3-21.8,92.1-24z M88.5-22.6c-1.5,0.1-2.8-0.5-4-1.3c-1.6-0.9-3.2-2.1-4.6-3.3
			c-0.2-0.2-0.5-0.3-0.8-0.5c-0.5-0.3-1-0.2-1.4,0.3c-0.3,0.5-0.3,1,0.1,1.4c0.8,0.8,1.6,1.5,2.6,2c1.5,0.8,1.7,2.1,1.8,3.5
			c0.1,3.1-1.2,5.5-3.5,7.4c-3.8,3.2-8.3,4.5-13.1,5.2c-2.2,0.3-4.5,0.4-6.8,0.3C54.2-7.4,49.7-8,45.4-9.5c-2.4-0.9-4.7-2-6.5-3.7
			c-2.7-2.5-3.9-5.5-2.8-9.2c0.1-0.4,0.3-0.6,0.6-0.9c0.9-0.7,1.9-1.4,2.8-2.1c0.3-0.2,0.5-0.4,0.7-0.7c0.3-0.4,0.3-0.9,0-1.3
			c-0.2-0.3-0.6-0.5-1.1-0.3c-0.7,0.3-1.2,0.9-1.9,1.3c-1.8,1.3-3.6,2.8-5.9,3.5c-0.5,0.1-0.9,0.3-1.4,0.3c-1.6,0-1.8-0.2-1.7-1.8
			c0.1-1.5,0.6-3,1.3-4.4c1.3-2.8,2.8-5.5,4.7-7.9c0.9-1.2,2.2-1.8,3.7-2.1c3-0.5,5.9-0.5,8.9,0c0.3,0.1,0.7,0,1.1-0.1
			c0.4-0.1,0.8-0.4,0.8-0.9s-0.2-0.9-0.7-1.1c-0.5-0.2-1.1-0.3-1.7-0.4c-3.8-0.7-6-4.4-5.2-8.2c0.8-4.1,3.2-6.7,7.2-7.8
			c3.1-0.9,5.8,1,6.4,4.1c0.3,1.7,0.1,3.4-0.7,4.9c-0.4,0.8,0,1.7,1,2.1c2.6,1.3,5.2,1.3,7.8,0c1.1-0.5,1.3-1.3,0.8-2.4
			c-1.1-2.6-1-5.1,0.8-7.3c1.4-1.7,3.4-2,5.5-1.4c3.6,1.1,7,4.9,7,9.1c-0.1,3.7-2.2,6.3-5.8,7c-0.3,0.1-0.7,0.1-1,0.2
			c-0.6,0.2-1,0.6-0.9,1.3s0.7,0.9,1.3,0.9c0.8,0,1.5-0.1,2.3-0.2c2.8-0.4,5.5-0.2,8.2,0.5c1.4,0.3,2.4,1.3,3.3,2.5
			c1.8,2.6,3.4,5.3,4.6,8.2c0.5,1.2,0.9,2.5,0.9,3.9C89.8-22.8,89.6-22.7,88.5-22.6z M59.2-47c-1,0-1.6-0.2-2.2-0.4
			c-0.5-0.2-0.5-0.5-0.2-0.8c0.5-0.6,1.2-0.9,1.9-1.2c0.5-0.2,2.5,1,2.6,1.5c0.1,0.3-0.2,0.4-0.4,0.5C60.5-47.2,59.6-47,59.2-47z
			 M51.3-49.2c0,0.7-0.6,1.3-1.4,1c-1.1-0.4-2.2-0.3-3.3,0c-0.6,0.2-1.4,0.3-1.7-0.5c-0.2-0.7,0.2-1.3,1.1-1.6
			c1.4-0.5,2.8-0.5,4.2-0.1C51-50.2,51.3-49.7,51.3-49.2z M71.7-48.1c-0.1,0-0.5-0.1-0.9-0.2c-0.8-0.2-1.7-0.3-2.5,0.1
			c-0.7,0.3-1.2,0.1-1.5-0.5c-0.3-0.7,0-1.3,0.6-1.5c1.8-0.7,3.5-0.6,5.2,0.2c0.5,0.3,0.6,0.8,0.5,1.4C72.9-48.1,72.5-48,71.7-48.1z
			 M45.8-45.1c0,1.2-0.4,1.8-1.1,1.8c-0.7,0-1-0.5-1-1.1c0-1.1,0.5-1.8,1.2-1.8C45.6-46.3,45.9-45.8,45.8-45.1z M72.2-45.1
			c0-0.7,0.2-1.1,1-1.1c0.7,0,1.3,0.8,1.2,1.8c0,0.6-0.3,1.1-1,1.1C72.5-43.3,72.2-43.9,72.2-45.1z M47.6-45c0-0.7,0.2-1.2,0.9-1.2
			c0.6-0.1,1,0.4,1.1,1v0.1c0.2,1-0.2,1.8-0.8,1.8C48.2-43.3,47.7-44.1,47.6-45z M70.3-45c0,1-0.5,1.7-1.2,1.7
			c-0.7-0.1-0.9-0.7-0.9-1.3c0-0.9,0.4-1.6,1.1-1.6C69.9-46.3,70.3-45.8,70.3-45z"/>
	</g>
	<g id="Black-S" transform="matrix(1 0 0 1 2884.57 696)">
		<path class="st1" d="M81.9-24.7c-0.1-1.8-0.6-3.5-1.3-5.1c-2.1-4.9-5.2-9.1-8.9-13c-0.4-0.4-0.6-0.8-0.4-1.4
			c1.2-4.4,0.7-8.6-1.4-12.6c-2.7-5.3-7-8.8-12.4-11c-3.6-1.5-7.4-2.1-11.3-1.6c-4.2,0.6-8,2.1-11.4,4.5c-6.3,4.4-10.8,12.3-8.4,21
			c0.1,0.5,0,0.7-0.3,1c-2.6,2.7-5,5.7-6.9,8.9c-1.6,2.8-3,5.7-3.4,9c-0.2,1.8,0.6,3.9,3.2,3.9c1.5,0,3-0.2,4.4-0.9
			C23-14.4,27.9-10.9,33.9-8.1c-0.2,0.2-0.4,0.4-0.5,0.6c-1.4,1.6-0.9,3.4,1.1,3.9c0.3,0.1,0.4,0.3,0.5,0.5c0.4,0.6,1,0.9,1.6,1
			c1.3,0.2,2.5-0.7,3.8,0c2.3-0.6,4.5-1.3,5.8-3.4c0.2-0.3,0.3-0.4,0.7-0.3c1.3,0.2,2.5,0.2,3.8,0c0.2,0,0.4,0,0.5,0.2
			c0.8,1.8,2.6,2.4,4.2,3.1c1,0.3,1.9,0.6,2.9,0.1c0.3-0.1,0.5,0,0.8,0.1C60-2,60.9-1.9,61.7-2.4c0.8-0.6,1.6-1.2,2.4-1.7
			c1.1-0.7,1-2.2,0-3.5c-0.5-0.6-0.4-0.7,0.2-0.9c0.8-0.3,1.7-0.7,2.5-1.2c4.4-2.7,7.7-6.1,7.4-11.7c0-0.5,0.1-0.6,0.5-0.4
			c1.2,0.6,2.5,0.7,3.8,0.7C80.8-21.2,82.1-22.5,81.9-24.7z M78.3-23.3c-1.5,0.1-2.8-0.5-4-1.3c-1.6-0.9-3.2-2.1-4.6-3.3
			c-0.2-0.2-0.5-0.3-0.8-0.5c-0.5-0.3-1-0.2-1.4,0.3c-0.3,0.5-0.3,1,0.1,1.4c0.8,0.8,1.6,1.5,2.6,2c1.5,0.8,1.7,2.1,1.8,3.5
			c0.1,3.1-1.2,5.5-3.5,7.4c-3.8,3.2-8.3,4.5-13.1,5.2c-2.2,0.3-4.5,0.4-6.8,0.3c-4.6,0.2-9.1-0.4-13.4-1.9c-2.4-0.9-4.7-2-6.5-3.7
			c-2.7-2.5-3.9-5.5-2.8-9.2c0.1-0.4,0.3-0.6,0.6-0.9c0.9-0.7,1.9-1.4,2.8-2.1c0.3-0.2,0.5-0.4,0.7-0.7c0.3-0.4,0.3-0.9,0-1.3
			c-0.2-0.3-0.6-0.5-1.1-0.3c-0.7,0.3-1.2,0.9-1.9,1.3c-1.8,1.3-3.6,2.8-5.9,3.5c-0.5,0.1-0.9,0.3-1.4,0.3c-1.6,0-1.8-0.2-1.7-1.8
			c0.1-1.5,0.6-3,1.3-4.4c1.3-2.8,2.8-5.5,4.7-7.9c0.9-1.2,2.2-1.8,3.7-2.1c3-0.5,5.9-0.5,8.9,0c0.3,0.1,0.7,0,1.1-0.1
			c0.4-0.1,0.8-0.4,0.8-0.9s-0.2-0.9-0.7-1.1c-0.5-0.2-1.1-0.3-1.7-0.4c-3.8-0.7-6-4.4-5.2-8.2c0.8-4.1,3.2-6.7,7.2-7.8
			c3.1-0.9,5.8,1,6.4,4.1c0.3,1.7,0.1,3.4-0.7,4.9c-0.4,0.8,0,1.7,1,2.1c2.6,1.3,5.2,1.3,7.8,0c1.1-0.5,1.3-1.3,0.8-2.4
			c-1.1-2.6-1-5.1,0.8-7.3c1.4-1.7,3.4-2,5.5-1.4c3.6,1.1,7,4.9,7,9.1c-0.1,3.7-2.2,6.3-5.8,7c-0.3,0.1-0.7,0.1-1,0.2
			c-0.6,0.2-1,0.6-0.9,1.3s0.7,0.9,1.3,0.9c0.8,0,1.5-0.1,2.3-0.2c2.8-0.4,5.5-0.2,8.2,0.5c1.4,0.3,2.4,1.3,3.3,2.5
			c1.8,2.6,3.4,5.3,4.6,8.2c0.5,1.2,0.9,2.5,0.9,3.9C79.6-23.5,79.4-23.4,78.3-23.3z M49-47.7c-1,0-1.6-0.2-2.2-0.4
			c-0.5-0.2-0.5-0.5-0.2-0.8c0.5-0.6,1.2-0.9,1.9-1.2c0.5-0.2,2.5,1,2.6,1.5c0.1,0.3-0.2,0.4-0.4,0.5C50.3-47.9,49.4-47.7,49-47.7z
			 M41.1-49.9c0,0.7-0.6,1.3-1.4,1c-1.1-0.4-2.2-0.3-3.3,0c-0.6,0.2-1.4,0.3-1.7-0.5c-0.2-0.7,0.2-1.3,1.1-1.6
			c1.4-0.5,2.8-0.5,4.2-0.1C40.8-50.9,41.1-50.4,41.1-49.9z M61.5-48.8c-0.1,0-0.5-0.1-0.9-0.2c-0.8-0.2-1.7-0.3-2.5,0.1
			c-0.7,0.3-1.2,0.1-1.5-0.5c-0.3-0.7,0-1.3,0.6-1.5c1.8-0.7,3.5-0.6,5.2,0.2c0.5,0.3,0.6,0.8,0.5,1.4
			C62.7-48.8,62.3-48.7,61.5-48.8z M35.6-45.8c0,1.2-0.4,1.8-1.1,1.8c-0.7,0-1-0.5-1-1.1c0-1.1,0.5-1.8,1.2-1.8
			C35.4-47,35.7-46.5,35.6-45.8z M62-45.8c0-0.7,0.2-1.1,1-1.1c0.7,0,1.3,0.8,1.2,1.8c0,0.6-0.3,1.1-1,1.1C62.3-44,62-44.6,62-45.8z
			 M37.4-45.7c0-0.7,0.2-1.2,0.9-1.2c0.6-0.1,1,0.4,1.1,1v0.1c0.2,1-0.2,1.8-0.8,1.8C38-44,37.5-44.8,37.4-45.7z M60.1-45.7
			c0,1-0.5,1.7-1.2,1.7c-0.7-0.1-0.9-0.7-0.9-1.3c0-0.9,0.4-1.6,1.1-1.6C59.7-47,60.1-46.5,60.1-45.7z"/>
	</g>
	<g id="Regular-S" transform="matrix(1 0 0 1 1403.58 696)">
		<path class="st1" d="M79.5-24.2c-0.1-1.8-0.6-3.5-1.3-5.1c-2.1-4.9-5.2-9.1-8.9-13c-0.4-0.4-0.6-0.8-0.4-1.4
			c1.2-4.4,0.7-8.6-1.4-12.6c-2.7-5.3-7-8.8-12.4-11c-3.6-1.5-7.4-2.1-11.3-1.6c-4.2,0.6-8,2.1-11.4,4.5c-6.3,4.4-10.8,12.3-8.4,21
			c0.1,0.5,0,0.7-0.3,1c-2.6,2.7-5,5.7-6.9,8.9c-1.6,2.8-3,5.7-3.4,9c-0.2,1.8,0.6,3.9,3.2,3.9c1.5,0,3-0.2,4.4-0.9
			c-0.4,7.6,4.5,11.1,10.5,13.9C31.3-7.4,31.1-7.2,31-7c-1.4,1.6-0.9,3.4,1.1,3.9c0.3,0.1,0.4,0.3,0.5,0.5c0.4,0.6,1,0.9,1.6,1
			c1.3,0.2,2.5-0.7,3.8,0c2.3-0.6,4.5-1.3,5.8-3.4c0.2-0.3,0.3-0.4,0.7-0.3c1.3,0.2,2.5,0.2,3.8,0c0.2,0,0.4,0,0.5,0.2
			C49.6-3.3,51.4-2.7,53-2c1,0.3,1.9,0.6,2.9,0.1c0.3-0.1,0.5,0,0.8,0.1c0.9,0.3,1.8,0.4,2.6-0.1c0.8-0.6,1.6-1.2,2.4-1.7
			c1.1-0.7,1-2.2,0-3.5c-0.5-0.6-0.4-0.7,0.2-0.9c0.8-0.3,1.7-0.7,2.5-1.2c4.4-2.7,7.7-6.1,7.4-11.7c0-0.5,0.1-0.6,0.5-0.4
			c1.2,0.6,2.5,0.7,3.8,0.7C78.4-20.7,79.7-22,79.5-24.2z M75.9-22.8c-1.5,0.1-2.8-0.5-4-1.3c-1.6-0.9-3.2-2.1-4.6-3.3
			c-0.2-0.2-0.5-0.3-0.8-0.5c-0.5-0.3-1-0.2-1.4,0.3c-0.3,0.5-0.3,1,0.1,1.4c0.8,0.8,1.6,1.5,2.6,2c1.5,0.8,1.7,2.1,1.8,3.5
			c0.1,3.1-1.2,5.5-3.5,7.4c-3.8,3.2-8.3,4.5-13.1,5.2c-2.2,0.3-4.5,0.4-6.8,0.3c-4.6,0.2-9.1-0.4-13.4-1.9c-2.4-0.9-4.7-2-6.5-3.7
			c-2.7-2.5-3.9-5.5-2.8-9.2c0.1-0.4,0.3-0.6,0.6-0.9c0.9-0.7,1.9-1.4,2.8-2.1c0.3-0.2,0.5-0.4,0.7-0.7c0.3-0.4,0.3-0.9,0-1.3
			c-0.2-0.3-0.6-0.5-1.1-0.3c-0.7,0.3-1.2,0.9-1.9,1.3c-1.8,1.3-3.6,2.8-5.9,3.5c-0.5,0.1-0.9,0.3-1.4,0.3c-1.6,0-1.8-0.2-1.7-1.8
			c0.1-1.5,0.6-3,1.3-4.4c1.3-2.8,2.8-5.5,4.7-7.9c0.9-1.2,2.2-1.8,3.7-2.1c3-0.5,5.9-0.5,8.9,0c0.3,0.1,0.7,0,1.1-0.1
			c0.4-0.1,0.8-0.4,0.8-0.9s-0.2-0.9-0.7-1.1c-0.5-0.2-1.1-0.3-1.7-0.4c-3.8-0.7-6-4.4-5.2-8.2c0.8-4.1,3.2-6.7,7.2-7.8
			c3.1-0.9,5.8,1,6.4,4.1c0.3,1.7,0.1,3.4-0.7,4.9c-0.4,0.8,0,1.7,1,2.1c2.6,1.3,5.2,1.3,7.8,0c1.1-0.5,1.3-1.3,0.8-2.4
			c-1.1-2.6-1-5.1,0.8-7.3c1.4-1.7,3.4-2,5.5-1.4c3.6,1.1,7,4.9,7,9.1c-0.1,3.7-2.2,6.3-5.8,7c-0.3,0.1-0.7,0.1-1,0.2
			c-0.6,0.2-1,0.6-0.9,1.3s0.7,0.9,1.3,0.9c0.8,0,1.5-0.1,2.3-0.2c2.8-0.4,5.5-0.2,8.2,0.5c1.4,0.3,2.4,1.3,3.3,2.5
			c1.8,2.6,3.4,5.3,4.6,8.2c0.5,1.2,0.9,2.5,0.9,3.9C77.2-23,77-22.9,75.9-22.8z M46.6-47.2c-1,0-1.6-0.2-2.2-0.4
			c-0.5-0.2-0.5-0.5-0.2-0.8c0.5-0.6,1.2-0.9,1.9-1.2c0.5-0.2,2.5,1,2.6,1.5c0.1,0.3-0.2,0.4-0.4,0.5C47.9-47.4,47-47.2,46.6-47.2z
			 M38.7-49.4c0,0.7-0.6,1.3-1.4,1c-1.1-0.4-2.2-0.3-3.3,0c-0.6,0.2-1.4,0.3-1.7-0.5c-0.2-0.7,0.2-1.3,1.1-1.6
			c1.4-0.5,2.8-0.5,4.2-0.1C38.4-50.4,38.7-49.9,38.7-49.4z M59.1-48.3c-0.1,0-0.5-0.1-0.9-0.2c-0.8-0.2-1.7-0.3-2.5,0.1
			c-0.7,0.3-1.2,0.1-1.5-0.5c-0.3-0.7,0-1.3,0.6-1.5c1.8-0.7,3.5-0.6,5.2,0.2c0.5,0.3,0.6,0.8,0.5,1.4
			C60.3-48.3,59.9-48.2,59.1-48.3z M33.2-45.3c0,1.2-0.4,1.8-1.1,1.8c-0.7,0-1-0.5-1-1.1c0-1.1,0.5-1.8,1.2-1.8
			C33-46.5,33.3-46,33.2-45.3z M59.6-45.3c0-0.7,0.2-1.1,1-1.1c0.7,0,1.3,0.8,1.2,1.8c0,0.6-0.3,1.1-1,1.1
			C59.9-43.5,59.6-44.1,59.6-45.3z M35-45.2c0-0.7,0.2-1.2,0.9-1.2c0.6-0.1,1,0.4,1.1,1v0.1c0.2,1-0.2,1.8-0.8,1.8
			C35.6-43.5,35.1-44.3,35-45.2z M57.7-45.2c0,1-0.5,1.7-1.2,1.7c-0.7-0.1-0.9-0.7-0.9-1.3c0-0.9,0.4-1.6,1.1-1.6
			C57.3-46.5,57.7-46,57.7-45.2z"/>
	</g>
	<g id="Ultralight-S" transform="matrix(1 0 0 1 515.649 696)">
		<path class="st1" d="M77.3-23.7c-0.1-1.8-0.6-3.5-1.3-5.1c-2.1-4.9-5.2-9.1-8.9-13c-0.4-0.4-0.6-0.8-0.4-1.4
			c1.2-4.4,0.7-8.6-1.4-12.6c-2.7-5.3-7-8.8-12.4-11c-3.6-1.5-7.4-2.1-11.3-1.6c-4.2,0.6-8,2.1-11.4,4.5c-6.3,4.4-10.8,12.3-8.4,21
			c0.1,0.5,0,0.7-0.3,1c-2.6,2.7-5,5.7-6.9,8.9c-1.6,2.8-3,5.7-3.4,9c-0.2,1.8,0.6,3.9,3.2,3.9c1.5,0,3-0.2,4.4-0.9
			c-0.4,7.6,4.5,11.1,10.5,13.9c-0.2,0.2-0.4,0.4-0.5,0.6c-1.4,1.6-0.9,3.4,1.1,3.9c0.3,0.1,0.4,0.3,0.5,0.5c0.4,0.6,1,0.9,1.6,1
			c1.3,0.2,2.5-0.7,3.8,0c2.3-0.6,4.5-1.3,5.8-3.4c0.2-0.3,0.3-0.4,0.7-0.3c1.3,0.2,2.5,0.2,3.8,0c0.2,0,0.4,0,0.5,0.2
			c0.8,1.8,2.6,2.4,4.2,3.1c1,0.3,1.9,0.6,2.9,0.1c0.3-0.1,0.5,0,0.8,0.1c0.9,0.3,1.8,0.4,2.6-0.1c0.8-0.6,1.6-1.2,2.4-1.7
			c1.1-0.7,1-2.2,0-3.5c-0.5-0.6-0.4-0.7,0.2-0.9c0.8-0.3,1.7-0.7,2.5-1.2c4.4-2.7,7.7-6.1,7.4-11.7c0-0.5,0.1-0.6,0.5-0.4
			c1.2,0.6,2.5,0.7,3.8,0.7C76.2-20.2,77.5-21.5,77.3-23.7z M73.7-22.3c-1.5,0.1-2.8-0.5-4-1.3c-1.6-0.9-3.2-2.1-4.6-3.3
			c-0.2-0.2-0.5-0.3-0.8-0.5c-0.5-0.3-1-0.2-1.4,0.3c-0.3,0.5-0.3,1,0.1,1.4c0.8,0.8,1.6,1.5,2.6,2c1.5,0.8,1.7,2.1,1.8,3.5
			c0.1,3.1-1.2,5.5-3.5,7.4c-3.8,3.2-8.3,4.5-13.1,5.2c-2.2,0.3-4.5,0.4-6.8,0.3c-4.6,0.2-9.1-0.4-13.4-1.9c-2.4-0.9-4.7-2-6.5-3.7
			c-2.7-2.5-3.9-5.5-2.8-9.2c0.1-0.4,0.3-0.6,0.6-0.9c0.9-0.7,1.9-1.4,2.8-2.1c0.3-0.2,0.5-0.4,0.7-0.7c0.3-0.4,0.3-0.9,0-1.3
			c-0.2-0.3-0.6-0.5-1.1-0.3c-0.7,0.3-1.2,0.9-1.9,1.3c-1.8,1.3-3.6,2.8-5.9,3.5c-0.5,0.1-0.9,0.3-1.4,0.3c-1.6,0-1.8-0.2-1.7-1.8
			c0.1-1.5,0.6-3,1.3-4.4c1.3-2.8,2.8-5.5,4.7-7.9c0.9-1.2,2.2-1.8,3.7-2.1c3-0.5,5.9-0.5,8.9,0c0.3,0.1,0.7,0,1.1-0.1
			c0.4-0.1,0.8-0.4,0.8-0.9s-0.2-0.9-0.7-1.1c-0.5-0.2-1.1-0.3-1.7-0.4c-3.8-0.7-6-4.4-5.2-8.2c0.8-4.1,3.2-6.7,7.2-7.8
			c3.1-0.9,5.8,1,6.4,4.1c0.3,1.7,0.1,3.4-0.7,4.9c-0.4,0.8,0,1.7,1,2.1c2.6,1.3,5.2,1.3,7.8,0c1.1-0.5,1.3-1.3,0.8-2.4
			c-1.1-2.6-1-5.1,0.8-7.3c1.4-1.7,3.4-2,5.5-1.4c3.6,1.1,7,4.9,7,9.1c-0.1,3.7-2.2,6.3-5.8,7c-0.3,0.1-0.7,0.1-1,0.2
			c-0.6,0.2-1,0.6-0.9,1.3s0.7,0.9,1.3,0.9c0.8,0,1.5-0.1,2.3-0.2c2.8-0.4,5.5-0.2,8.2,0.5c1.4,0.3,2.4,1.3,3.3,2.5
			c1.8,2.6,3.4,5.3,4.6,8.2c0.5,1.2,0.9,2.5,0.9,3.9C75-22.5,74.8-22.4,73.7-22.3z M44.4-46.7c-1,0-1.6-0.2-2.2-0.4
			c-0.5-0.2-0.5-0.5-0.2-0.8c0.5-0.6,1.2-0.9,1.9-1.2c0.5-0.2,2.5,1,2.6,1.5c0.1,0.3-0.2,0.4-0.4,0.5C45.7-46.9,44.8-46.7,44.4-46.7
			z M36.5-48.9c0,0.7-0.6,1.3-1.4,1c-1.1-0.4-2.2-0.3-3.3,0c-0.6,0.2-1.4,0.3-1.7-0.5c-0.2-0.7,0.2-1.3,1.1-1.6
			c1.4-0.5,2.8-0.5,4.2-0.1C36.2-49.9,36.5-49.4,36.5-48.9z M56.9-47.8c-0.1,0-0.5-0.1-0.9-0.2c-0.8-0.2-1.7-0.3-2.5,0.1
			c-0.7,0.3-1.2,0.1-1.5-0.5c-0.3-0.7,0-1.3,0.6-1.5c1.8-0.7,3.5-0.6,5.2,0.2c0.5,0.3,0.6,0.8,0.5,1.4
			C58.1-47.8,57.7-47.7,56.9-47.8z M31-44.8c0,1.2-0.4,1.8-1.1,1.8c-0.7,0-1-0.5-1-1.1c0-1.1,0.5-1.8,1.2-1.8
			C30.8-46,31.1-45.5,31-44.8z M57.4-44.8c0-0.7,0.2-1.1,1-1.1c0.7,0,1.3,0.8,1.2,1.8c0,0.6-0.3,1.1-1,1.1
			C57.7-43,57.4-43.6,57.4-44.8z M32.8-44.7c0-0.7,0.2-1.2,0.9-1.2c0.6-0.1,1,0.4,1.1,1v0.1c0.2,1-0.2,1.8-0.8,1.8
			C33.4-43,32.9-43.8,32.8-44.7z M55.5-44.7c0,1-0.5,1.7-1.2,1.7c-0.7-0.1-0.9-0.7-0.9-1.3c0-0.9,0.4-1.6,1.1-1.6
			C55.1-46,55.5-45.5,55.5-44.7z"/>
	</g>
</g>
</svg>
